<svg xmlns="http://www.w3.org/2000/svg" width="637" height="149" viewBox="0 0 637 149" fill="none"><path d="M58.1 100.1C58.1 114.2 48.1 125.4 34 125.4C19.9 125.4 9.7 114 9.7 99.9V99.7C9.7 85.6 19.7 74.4 33.8 74.4C47.9 74.4 58.1 85.8 58.1 99.9V100.1ZM34 65.5C23.9 65.5 15.4 69.5 9.39999 75.8C3.39999 82.1 0 90.7 0 99.9V100.1C0 109.2 3.4 117.8 9.3 124.1C15.2 130.4 23.7 134.3 33.8 134.3C43.9 134.3 52.4 130.3 58.4 124C64.4 117.7 67.8 109.1 67.8 99.9V99.7C67.8 90.6 64.4 82 58.5 75.7C52.6 69.5 44.1 65.5 34 65.5Z" fill="white"></path><path d="M118.4 108.5C118.4 114 116.6 118.3 113.8 121.2C111 124.1 107.1 125.7 102.7 125.7C94.5 125.7 86.6 118.8 86.6 108.4V108.2C86.6 97.9 94.5 91 102.7 91C111.1 91 118.3 97.6 118.4 108.3V108.5ZM104 82.5C96.2 82.5 90.7 86.2 86.8 91V83.5H77.6V84.6V148H86.8V126.2C90.6 130.6 96.1 134.3 104 134.3C110 134.3 116 131.9 120.4 127.4C124.8 123 127.8 116.5 127.8 108.4V108.2C127.8 100.1 124.9 93.6 120.4 89.2C116 84.8 110 82.5 104 82.5Z" fill="white"></path><path d="M157.3 90.6C161.7 90.6 164.9 92.3 167.3 95C169.4 97.4 170.7 100.8 171.2 104.5H143.1C143.7 100.6 145.3 97.3 147.6 94.8C150.2 92.1 153.5 90.6 157.3 90.6ZM157.5 82.5C150.6 82.5 144.6 85.4 140.4 90.1C136.2 94.8 133.6 101.3 133.6 108.4C133.6 116.1 136.4 122.6 140.9 127.1C145.4 131.7 151.6 134.3 158.4 134.3C167.7 134.3 173.9 130.5 178.8 125L179.5 124.2L173.5 118.8L172.8 119.5C169 123.4 164.8 125.9 158.6 125.9C151.1 125.9 144.6 121 143.1 112.2H180.5L180.6 111.2C180.7 110.1 180.7 109.3 180.7 108.6C180.7 101.4 178.6 94.8 174.6 90.1C170.7 85.4 164.8 82.5 157.5 82.5Z" fill="white"></path><path d="M213.3 82.5C206.3 82.5 201.4 85.5 198.1 89.5V83.5H188.9V84.6V133.2H198.1V104.9C198.1 100.7 199.5 97.2 201.9 94.8C204.2 92.4 207.5 91 211.3 91C215.3 91 218.2 92.3 220.2 94.5C222.2 96.7 223.4 100 223.4 104.3V133.2H232.6V102.6C232.6 96.7 230.9 91.7 227.5 88.1C224.1 84.5 219.3 82.5 213.3 82.5Z" fill="white"></path><path d="M284.4 105.3H304V119.7C299.8 123 293.4 125.6 286.5 125.6C278.9 125.6 272.9 122.9 268.7 118.3C264.5 113.7 262.1 107.3 262.1 99.9004V99.7004C262.1 92.8004 264.6 86.4004 268.7 81.8004C272.9 77.2004 278.7 74.3004 285.5 74.3004C294.4 74.3004 299.5 77.2004 304.4 81.4004L305.2 82.1004L311.3 74.9004L310.5 74.2004C303.9 68.7004 296.9 65.4004 285.8 65.4004C275.8 65.4004 267.5 69.4004 261.6 75.8004C255.7 82.1004 252.4 90.7004 252.4 99.8004V100C252.4 109.4 255.6 118 261.5 124.2C267.4 130.4 275.9 134.2 286.3 134.2C297.5 134.2 306.7 129.6 312.9 124.1L313.3 123.8V96.6004H284.6V105.3H284.4Z" fill="white"></path><path d="M355.3 114.6C355.3 118 353.7 120.9 351.1 123C348.5 125.1 344.7 126.3 340.6 126.3C337.6 126.3 334.8 125.5 332.8 124C330.8 122.5 329.7 120.5 329.7 117.9V117.7C329.7 115.2 330.8 113.2 332.9 111.6C335 110.1 338.3 109.1 342.5 109.2C347.8 109.2 352 110.1 355.3 111V114.6ZM342.9 82.7002C335.7 82.7002 330.5 84.4002 325.2 86.8002L324.3 87.2002L327.2 95.0002L328.3 94.5002C332.6 92.5002 336.9 91.2002 342.3 91.2002C346.6 91.2002 349.8 92.3002 352 94.2002C354.1 96.1002 355.3 99.0002 355.3 103V103.1C351.4 102.1 347.4 101.4 341.8 101.4C335.6 101.4 330.3 102.8 326.5 105.6C322.7 108.4 320.4 112.7 320.4 118.1V118.3C320.4 123.5 322.8 127.6 326.4 130.2C330 132.9 334.6 134.2 339.3 134.2C346.6 134.2 351.8 131.3 355.3 127.8V133.2H364.4V103C364.4 96.7002 362.7 91.8002 359.1 88.3002C355.4 84.6002 349.8 82.7002 342.9 82.7002Z" fill="white"></path><path d="M386.7 69.1006H377.5V83.5006H370.9V91.9006H377.5V119.501C377.5 124.501 379 128.301 381.7 130.601C384.4 133.001 388 134.001 392 134.001C395.6 134.001 398.4 133.201 401 131.901L401.6 131.601V123.201L400.1 123.901C397.7 125.001 395.9 125.401 393.7 125.501C391.5 125.501 389.7 125.001 388.6 124.001C387.5 123.001 386.8 121.401 386.7 118.701V92.0006H401.8V83.6006H386.7V69.1006Z" fill="white"></path><path d="M430.7 90.6C435.1 90.6 438.3 92.3 440.7 95C442.8 97.4 444.1 100.8 444.6 104.5H416.5C417.1 100.6 418.7 97.3 421 94.8C423.6 92.1 426.9 90.6 430.7 90.6ZM430.9 82.5C424 82.5 418 85.4 413.8 90.1C409.6 94.8 407 101.3 407 108.4C407 116.1 409.8 122.6 414.3 127.1C418.8 131.7 425 134.3 431.8 134.3C441.1 134.3 447.3 130.5 452.2 125L452.9 124.2L446.9 118.8L446.2 119.5C442.4 123.4 438.2 125.9 432 125.9C424.5 125.9 418 121 416.5 112.2H454L454.1 111.2C454.2 110.1 454.2 109.3 454.2 108.6C454.2 101.4 452.1 94.8 448.1 90.1C444.1 85.4 438.2 82.5 430.9 82.5Z" fill="white"></path><path d="M510.9 119.4L498.8 83.2998H491.4L479.3 119.3L467.6 83.4998H457.8L458.3 84.8998L475.2 133.6H482.9L495.1 98.2998L507.1 133.6H514.8L532.3 83.4998H522.6L510.9 119.4Z" fill="white"></path><path d="M570.7 114.6C570.7 118 569.1 120.9 566.5 123C563.9 125.1 560.1 126.3 556 126.3C553 126.3 550.2 125.5 548.2 124C546.2 122.5 545.1 120.5 545.1 117.9V117.7C545.1 115.2 546.2 113.2 548.3 111.6C550.4 110.1 553.7 109.1 557.9 109.2C563.2 109.2 567.4 110.1 570.7 111V114.6ZM558.3 82.7002C551.1 82.7002 545.9 84.4002 540.6 86.8002L539.7 87.2002L542.6 95.0002L543.7 94.5002C548 92.5002 552.3 91.2002 557.7 91.2002C562 91.2002 565.2 92.3002 567.4 94.2002C569.5 96.1002 570.7 99.0002 570.7 103V103.1C566.8 102.1 562.8 101.4 557.2 101.4C551 101.4 545.7 102.8 541.9 105.6C538.1 108.4 535.8 112.7 535.8 118.1V118.3C535.8 123.5 538.2 127.6 541.8 130.2C545.4 132.9 550 134.2 554.7 134.2C562 134.2 567.2 131.3 570.7 127.8V133.2H579.8V103C579.8 96.7002 578.1 91.8002 574.5 88.3002C570.8 84.6002 565.2 82.7002 558.3 82.7002Z" fill="white"></path><path d="M611.7 121.4L595.2 83.5H585L607.1 132C605.8 135 604.5 137 603.2 138.2C601.8 139.4 600.5 139.9 598.5 139.9C595.6 139.9 593.7 139.4 591.5 138.3L590.5 137.8L587.3 145.4L588.2 145.8C591.5 147.4 594.7 148.3 598.8 148.3C602.6 148.3 605.8 147.3 608.6 145C611.4 142.7 613.6 139.2 615.6 134.2L636.2 83.6H626.3L611.7 121.4Z" fill="white"></path><path d="M65.3 19.4998V24.2998C65.3 30.0998 63.9 33.7998 61 36.6998C57.1 40.5998 49.8 43.1998 35.7 43.1998C19.3 43.1998 12.5 39.7998 8.70003 35.9998C5.30003 32.5998 3.40002 27.9998 3.40002 21.9998C3.40002 16.2998 5.10003 11.4998 8.70003 7.8998C12.5 4.0998 20.2 0.799805 35.8 0.799805C48.2 0.799805 57.4 2.89981 62.4 5.09981V13.5998C56.5 10.5998 47.1 8.2998 35.8 8.2998C24.7 8.2998 18.8 10.2998 16.2 12.7998C14 14.8998 13 17.8998 13 21.8998C13 26.1998 14.2 28.9998 16.2 30.9998C18.9 33.5998 23.9 35.7998 35.8 35.7998C45.3 35.7998 51.5 34.1998 53.8 31.8998C55.4 30.3998 55.8 28.6998 55.8 26.8998H30.9V19.5998H65.3V19.4998Z" fill="white"></path><path d="M74.8 5.6002C77.8 2.6002 83.7001 0.700195 98.0001 0.700195C109.2 0.700195 118.2 2.3002 123.7 4.5002V12.5002C117.5 9.9002 107 7.90019 98.1001 7.90019C87.1001 7.90019 83.7001 8.9002 82.4001 10.2002C81.8001 10.8002 81.4001 11.7002 81.4001 12.8002C81.4001 13.8002 81.7001 14.6002 82.2001 15.2002C83.4001 16.4002 86.6001 17.1002 99.4001 17.6002C116.4 18.4002 121.6 19.7002 124.5 22.6002C126.2 24.2002 127 26.8002 127 29.7002C127 32.8002 126.4 35.6002 124.1 37.9002C121.1 40.8002 115.2 43.1002 99.7001 43.1002C88.2001 43.1002 77.1001 41.3002 70.7001 38.6002V30.6002C76.8001 33.5002 89.8001 35.9002 99.7001 35.9002C110.7 35.9002 114.9 35.1002 116.5 33.4002C117.3 32.6002 117.5 31.7002 117.5 30.7002C117.5 29.6002 117.2 28.7002 116.6 28.0002C115.4 26.8002 113.1 26.2002 98.7001 25.5002C82.6001 24.8002 77.1001 23.4002 74.2001 20.5002C72.6001 18.9002 71.8 16.6002 71.8 13.6002C71.8 10.7002 72.5 7.9002 74.8 5.6002Z" fill="white"></path><path d="M190 1.7002L168 36.3002L145.9 1.7002H133.6V42.1002H143V12.8002L161.4 42.1002H174.1L192.5 12.9002L192.6 42.1002H202V1.7002H190Z" fill="white"></path><path d="M245.9 1.7002L274.2 42.0002H263.3L257.1 32.9002H221.6L215.4 42.0002H204.9L233.2 1.7002H245.9ZM226.6 25.6002H252L239.3 7.1002L226.6 25.6002Z" fill="white"></path></svg>